<svg width="75" height="82" viewBox="0 0 75 82" fill="none" xmlns="http://www.w3.org/2000/svg">
<path d="M36.4838 74.0354C37.1696 75.8365 37.599 79.6114 34.3593 80.9942C33.9182 81.1858 33.4458 81.2954 32.9653 81.3177H32.8984C32.4039 81.3188 31.917 81.1961 31.4821 80.9608C30.7075 80.5412 30.0641 79.9154 29.6232 79.1527C29.1823 78.3899 28.9611 77.5201 28.9841 76.6394V76.5V76.3662L37.1306 20.8124C37.1502 20.679 37.2014 20.5522 37.2799 20.4425C37.3584 20.3328 37.4619 20.2435 37.5819 20.1819C37.7019 20.1202 37.8348 20.0881 37.9697 20.0882C38.1046 20.0883 38.2375 20.1206 38.3573 20.1823C38.5181 20.2621 38.6491 20.3911 38.7314 20.5506C38.8136 20.7101 38.8428 20.8917 38.8146 21.0689L30.7071 76.4833C30.6723 77.081 30.8053 77.6765 31.091 78.2026C31.3767 78.7288 31.8038 79.1646 32.3241 79.4608C32.5618 79.5923 32.8382 79.6358 33.1047 79.5835C33.3119 79.5712 33.5147 79.5182 33.7014 79.4274C36.2886 78.3122 34.9783 74.7993 34.9281 74.6488C34.8867 74.5433 34.8666 74.4308 34.8688 74.3176C34.8711 74.2044 34.8958 74.0927 34.9414 73.9891C34.987 73.8854 35.0527 73.7918 35.1346 73.7136C35.2165 73.6355 35.3131 73.5743 35.4188 73.5336C35.5298 73.4948 35.6477 73.4798 35.7648 73.4894C35.882 73.499 35.9959 73.533 36.0991 73.5893C36.1908 73.6326 36.2725 73.6947 36.3388 73.7715C36.4051 73.8484 36.4545 73.9383 36.4838 74.0354Z" fill="#68E1FD"/>
<path d="M36.4838 74.0354C37.1696 75.8364 37.599 79.6114 34.3593 80.9942C33.9182 81.1858 33.4458 81.2954 32.9653 81.3177C32.6571 81.2567 32.3588 81.1535 32.0788 81.011C31.3009 80.5966 30.6555 79.9715 30.2166 79.2071C29.7777 78.4428 29.5631 77.5703 29.5974 76.6896L29.5919 76.5725V76.4331L37.7384 20.8682C37.7268 20.7766 37.7368 20.6836 37.7676 20.5966C37.7984 20.5096 37.8491 20.431 37.9157 20.3671C37.9824 20.3033 38.063 20.2559 38.1513 20.2288C38.2395 20.2017 38.3328 20.1956 38.4238 20.2111C38.5148 20.2266 38.6009 20.2631 38.6752 20.3179C38.7495 20.3726 38.81 20.444 38.8518 20.5263C38.8936 20.6086 38.9155 20.6995 38.9158 20.7918C38.9161 20.8841 38.8948 20.9752 38.8536 21.0578L30.7071 76.4832C30.6723 77.081 30.8053 77.6765 31.091 78.2026C31.3767 78.7288 31.8038 79.1646 32.3241 79.4608C32.5618 79.5923 32.8382 79.6357 33.1047 79.5835C33.3019 79.6555 33.5124 79.6834 33.7215 79.6651C33.9306 79.6468 34.1331 79.5828 34.3147 79.4776C36.8853 78.3902 35.5749 74.8495 35.5247 74.6989C35.4838 74.5955 35.464 74.4849 35.4667 74.3736C35.4693 74.2624 35.4942 74.1528 35.54 74.0514C35.5857 73.95 35.6514 73.8588 35.7331 73.7833C35.8147 73.7077 35.9107 73.6494 36.0154 73.6116C36.0427 73.6037 36.0717 73.6037 36.0991 73.6116C36.1886 73.6524 36.2689 73.7111 36.335 73.7839C36.4012 73.8568 36.4518 73.9423 36.4838 74.0354Z" fill="url(#paint0_linear_1_154)"/>
<path d="M17.6425 20.5726C17.6425 20.5726 27.9414 17.9463 33.3445 22.9201C33.3445 22.9201 39.3443 19.6414 48.9573 23.7008C48.9573 23.7008 58.7321 20.8849 74.3114 28.9813C74.3114 28.9813 72.5327 10.2013 47.2734 1.8763C22.0141 -6.44867 0 15.6267 0 15.6267C0 15.6267 11.7487 14.6119 17.6425 20.5726Z" fill="#68E1FD"/>
<path d="M46.8775 1.74806C33.233 3.72196 23.6701 12.8555 17.9213 20.5113C17.8315 20.5384 17.7402 20.5607 17.6481 20.5782C11.7486 14.6063 0.039032 15.6267 0.039032 15.6267C0.039032 15.6267 21.7855 -6.21448 46.8775 1.74806Z" fill="url(#paint1_linear_1_154)"/>
<path d="M74.3226 28.9868C66.2597 24.7993 59.7413 23.5224 55.3363 23.2659C54.9292 17.3832 52.9721 10.2515 47.87 2.2722C47.8198 2.17184 47.7473 2.10493 47.6972 2.02129C59.1503 5.87988 65.6965 11.902 69.4436 17.2772C73.8152 23.6004 74.3226 28.9868 74.3226 28.9868Z" fill="url(#paint2_linear_1_154)"/>
<defs>
<linearGradient id="paint0_linear_1_154" x1="32.6029" y1="67.4278" x2="51.4888" y2="-5.23867" gradientUnits="userSpaceOnUse">
<stop stop-color="#010101" stop-opacity="0"/>
<stop offset="0.95" stop-color="#010101"/>
</linearGradient>
<linearGradient id="paint1_linear_1_154" x1="22.6665" y1="-5.75724" x2="26.263" y2="61.6622" gradientUnits="userSpaceOnUse">
<stop stop-color="white" stop-opacity="0"/>
<stop offset="0.13" stop-color="white" stop-opacity="0.23"/>
<stop offset="0.23" stop-color="white" stop-opacity="0.41"/>
<stop offset="0.35" stop-color="white" stop-opacity="0.59"/>
<stop offset="0.48" stop-color="white" stop-opacity="0.74"/>
<stop offset="0.6" stop-color="white" stop-opacity="0.85"/>
<stop offset="0.72" stop-color="white" stop-opacity="0.93"/>
<stop offset="0.84" stop-color="white" stop-opacity="0.98"/>
<stop offset="0.95" stop-color="white"/>
</linearGradient>
<linearGradient id="paint2_linear_1_154" x1="73.4137" y1="11.4559" x2="-40.3535" y2="48.5809" gradientUnits="userSpaceOnUse">
<stop stop-color="#010101" stop-opacity="0"/>
<stop offset="0.95" stop-color="#010101"/>
</linearGradient>
</defs>
</svg>
